<svg xmlns="http://www.w3.org/2000/svg" viewBox="0 0 534.5 447.24"><defs><style>.cls-1{font-size:150px;font-family:MyriadPro-Regular, Myriad Pro;}.cls-1,.cls-6{fill:#fff;}.cls-2{letter-spacing:0em;}.cls-3{letter-spacing:-0.01em;}.cls-4{letter-spacing:0em;}.cls-5{fill:none;stroke:#fff;stroke-miterlimit:10;}</style></defs><g id="Capa_2" data-name="Capa 2"><g id="Capa_2-2" data-name="Capa 2"><text class="cls-1" transform="translate(63.33 176.41)">in<tspan class="cls-2" x="118.35" y="0">B</tspan><tspan class="cls-3" x="200.25" y="0">o</tspan><tspan class="cls-4" x="281.55" y="0">wl</tspan></text><ellipse class="cls-5" cx="267.5" cy="158.24" rx="266.5" ry="48.5"/><path class="cls-5" d="M533.5,158.24c0,159.34-119.32,288.5-266.5,288.5S.5,317.58.5,158.24"/><path class="cls-6" d="M469.52,77.32a4.17,4.17,0,0,1,.13.42c2.5-.27,5-.47,7.61-.54.27,0,.52,0,.78,0,0-.14,0-.26,0-.33,0-3.15,1.42-8.34,7.29-12.48a39.25,39.25,0,0,0,5.41-5.88c4.66-7.69,2-24.56,2-24.56L486.58.4c-1.07-.94-2.32.23-2.32.23s1.35,36.08,1.28,37,.5,2.69-1.91,2.71a2.07,2.07,0,0,1-2.34-2.08L477.5.39c-1.17-1-2.43.3-2.43.3s-.06,34.67.35,37.06-1.26,2.78-1.26,2.78c-2.84,0-2.6-2.3-2.6-2.3L469.47.76C468.7-.71,467,.87,467,.87s-1.39,37.6-1.27,38.14,1.05,1.94-1.53,2-2.59-2-2.59-2L460.58,1c-.77-1.29-2.43,0-2.43,0L452.93,43.6c-2.39,11.1,6,19.51,6,19.51C468.48,69.7,469.52,77.32,469.52,77.32Z"/></g></g></svg>